<svg xmlns="http://www.w3.org/2000/svg" width="12.755" height="12.755" viewBox="0 0 12.755 12.755">
  <g id="Icon_feather-image" data-name="Icon feather-image" transform="translate(0.5 0.5)">
    <path id="Path_1" data-name="Path 1" d="M5.783,4.5h8.982a1.283,1.283,0,0,1,1.283,1.283v8.982a1.283,1.283,0,0,1-1.283,1.283H5.783A1.283,1.283,0,0,1,4.5,14.765V5.783A1.283,1.283,0,0,1,5.783,4.5Z" transform="translate(-4.5 -4.5)" fill="none" stroke="#616161" stroke-linecap="round" stroke-linejoin="round" stroke-width="1"/>
    <path id="Path_2" data-name="Path 2" d="M12.425,11.462a.962.962,0,1,1-.962-.962A.962.962,0,0,1,12.425,11.462Z" transform="translate(-7.934 -7.934)" fill="none" stroke="#616161" stroke-linecap="round" stroke-linejoin="round" stroke-width="1"/>
    <path id="Path_3" data-name="Path 3" d="M17.765,18.208,14.557,15,7.5,22.057" transform="translate(-6.217 -10.509)" fill="none" stroke="#616161" stroke-linecap="round" stroke-linejoin="round" stroke-width="1"/>
  </g>
</svg>
